<svg fill="#000000" xmlns="http://www.w3.org/2000/svg"  viewBox="0 0 50 50" width="50px" height="50px"><path d="M 19.8125 0 C 19.488281 0.0546875 19.210938 0.269531 19.074219 0.570313 C 18.9375 0.867188 18.957031 1.21875 19.125 1.5 C 20.65625 4.261719 21.066406 6.609375 20.96875 8.34375 C 20.871094 10.078125 20.164063 11.167969 19.84375 11.375 C 19.613281 11.523438 19.539063 11.511719 19.28125 11.46875 C 19.023438 11.425781 18.628906 11.277344 18.125 11.09375 C 17.121094 10.722656 15.558594 10.34375 13.8125 11.21875 C 13.542969 11.355469 13.347656 11.609375 13.289063 11.910156 C 13.226563 12.207031 13.304688 12.515625 13.5 12.75 C 13.820313 13.125 14.195313 13.925781 14.375 14.71875 C 14.554688 15.511719 14.53125 16.304688 14.34375 16.71875 C 14 17.476563 11.40625 18.992188 11.40625 23.28125 C 11.40625 24.742188 11.621094 26.269531 12.5625 28 L 3 28 C 1.355469 28 0 29.355469 0 31 L 0 37 C 0 37.765625 0.300781 38.46875 0.78125 39 C 0.300781 39.53125 0 40.234375 0 41 L 0 47 C 0 48.644531 1.355469 50 3 50 L 31 50 C 31.765625 50 32.46875 49.699219 33 49.21875 C 33.53125 49.699219 34.234375 50 35 50 L 47 50 C 48.644531 50 50 48.644531 50 47 L 50 41 C 50 40.234375 49.699219 39.53125 49.21875 39 C 49.699219 38.46875 50 37.765625 50 37 L 50 31 C 50 29.355469 48.644531 28 47 28 L 38.71875 28 C 39.363281 25.136719 38.507813 22.972656 37.40625 21.46875 C 36.773438 20.601563 36.082031 19.925781 35.625 19.34375 C 35.167969 18.761719 34.992188 18.351563 35 18.03125 C 35.03125 16.800781 35.964844 14.863281 36.0625 12.75 C 36.113281 11.695313 35.882813 10.539063 35.125 9.53125 C 34.367188 8.523438 33.148438 7.707031 31.34375 7.0625 C 31.011719 6.933594 30.632813 6.996094 30.355469 7.222656 C 30.078125 7.445313 29.941406 7.804688 30 8.15625 C 30.1875 9.414063 30.15625 10.574219 29.9375 11.21875 C 29.828125 11.542969 29.6875 11.710938 29.59375 11.78125 C 29.5 11.851563 29.425781 11.882813 29.15625 11.84375 C 28.570313 11.761719 28.6875 11.746094 28.65625 11.65625 C 28.625 11.566406 28.613281 11.097656 28.71875 10.4375 C 28.933594 9.113281 29.390625 7.023438 28.3125 4.84375 C 26.660156 1.511719 23.03125 0 20 0 C 19.96875 0 19.9375 0 19.90625 0 C 19.875 0 19.84375 0 19.8125 0 Z M 21.625 2.40625 C 23.574219 2.839844 25.574219 3.824219 26.53125 5.75 C 27.285156 7.277344 26.976563 8.710938 26.75 10.125 C 26.636719 10.832031 26.472656 11.523438 26.75 12.3125 C 27.027344 13.101563 27.890625 13.703125 28.875 13.84375 C 29.5625 13.941406 30.261719 13.761719 30.78125 13.375 C 31.300781 12.988281 31.617188 12.457031 31.8125 11.875 C 32.042969 11.199219 32.101563 10.421875 32.09375 9.625 C 32.746094 9.996094 33.253906 10.351563 33.53125 10.71875 C 33.980469 11.3125 34.097656 11.914063 34.0625 12.65625 C 33.992188 14.140625 33.046875 15.996094 33 17.96875 C 32.976563 19.011719 33.507813 19.851563 34.0625 20.5625 C 34.617188 21.273438 35.25 21.933594 35.78125 22.65625 C 36.761719 23.992188 37.453125 25.433594 36.6875 28 L 31.90625 28 C 32.214844 26.828125 32.289063 25.65625 32 24.5625 C 31.597656 23.03125 30.53125 21.707031 28.9375 20.71875 C 28.582031 20.503906 28.128906 20.535156 27.804688 20.789063 C 27.480469 21.046875 27.34375 21.480469 27.46875 21.875 C 27.71875 22.644531 27.621094 23.382813 27.40625 23.84375 C 27.191406 24.304688 26.957031 24.5 26.5 24.5 C 26.320313 24.5 26.144531 24.347656 25.96875 23.90625 C 25.792969 23.464844 25.828125 22.839844 25.90625 22.6875 C 27.179688 20.1875 27.417969 18.3125 27 16.84375 C 26.582031 15.375 25.550781 14.511719 24.78125 13.90625 C 24.570313 13.734375 24.300781 13.65625 24.03125 13.6875 C 23.757813 13.726563 23.511719 13.875 23.351563 14.097656 C 23.191406 14.324219 23.132813 14.605469 23.1875 14.875 C 23.421875 16.007813 23.289063 16.769531 22.96875 17.46875 C 22.648438 18.167969 22.09375 18.808594 21.4375 19.53125 C 20.125 20.972656 18.375 22.808594 18.375 25.875 C 18.375 26.140625 18.390625 26.984375 18.6875 28.03125 C 18.046875 28.101563 17.457031 28.367188 17 28.78125 C 16.46875 28.300781 15.765625 28 15 28 L 14.9375 28 C 13.558594 26.089844 13.40625 24.890625 13.40625 23.28125 C 13.40625 19.742188 15.222656 19.589844 16.15625 17.53125 C 16.625 16.488281 16.589844 15.324219 16.34375 14.25 C 16.214844 13.679688 15.898438 13.25 15.65625 12.75 C 16.28125 12.65625 16.832031 12.746094 17.4375 12.96875 C 17.882813 13.132813 18.34375 13.339844 18.9375 13.4375 C 19.53125 13.535156 20.296875 13.445313 20.9375 13.03125 C 22.164063 12.238281 22.84375 10.632813 22.96875 8.46875 C 23.066406 6.78125 22.566406 4.664063 21.625 2.40625 Z M 25.03125 17.34375 C 25.039063 17.367188 25.054688 17.382813 25.0625 17.40625 C 25.300781 18.246094 25.265625 19.542969 24.125 21.78125 C 24.113281 21.78125 24.105469 21.78125 24.09375 21.78125 C 23.628906 22.703125 23.730469 23.714844 24.09375 24.625 C 24.457031 25.535156 25.285156 26.5 26.5 26.5 C 27.730469 26.5 28.746094 25.695313 29.21875 24.6875 C 29.34375 24.421875 29.371094 24.105469 29.4375 23.8125 C 29.726563 24.214844 29.945313 24.648438 30.0625 25.09375 C 30.285156 25.941406 30.195313 26.914063 29.8125 28 L 20.8125 28 C 20.398438 26.972656 20.375 26.199219 20.375 25.875 C 20.375 23.53125 21.554688 22.359375 22.90625 20.875 C 23.582031 20.132813 24.304688 19.324219 24.78125 18.28125 C 24.910156 17.996094 24.949219 17.664063 25.03125 17.34375 Z M 3 30 L 15 30 C 15.566406 30 16 30.433594 16 31 L 16 37 C 16 37.566406 15.566406 38 15 38 L 3 38 C 2.433594 38 2 37.566406 2 37 L 2 31 C 2 30.433594 2.433594 30 3 30 Z M 19 30 L 37.125 30 C 37.316406 30.058594 37.527344 30.058594 37.71875 30 L 47 30 C 47.566406 30 48 30.433594 48 31 L 48 37 C 48 37.566406 47.566406 38 47 38 L 19 38 C 18.433594 38 18 37.566406 18 37 L 18 31 C 18 30.433594 18.433594 30 19 30 Z M 3 40 L 31 40 C 31.566406 40 32 40.433594 32 41 L 32 47 C 32 47.566406 31.566406 48 31 48 L 3 48 C 2.433594 48 2 47.566406 2 47 L 2 41 C 2 40.433594 2.433594 40 3 40 Z M 35 40 L 47 40 C 47.566406 40 48 40.433594 48 41 L 48 47 C 48 47.566406 47.566406 48 47 48 L 35 48 C 34.433594 48 34 47.566406 34 47 L 34 41 C 34 40.433594 34.433594 40 35 40 Z"/></svg>